<svg xmlns="http://www.w3.org/2000/svg" viewBox="0 0 32 32">
  <rect width="32" height="32" rx="6" fill="#059669"/>
  <path d="M16 6c-1.5 0-2.5 1-3 2.5-.5-1-1.5-1.5-3-1.5-2 0-3.5 1.5-3.5 4 0 3 2.5 5 6.5 8 4-3 6.5-5 6.5-8 0-2.5-1.5-4-3.5-4-1.5 0-2.5.5-3 1.5-.5-1.5-1.5-2.5-3-2.5z" fill="none"/>
  <g fill="#ffffff">
    <ellipse cx="16" cy="22" rx="6" ry="3"/>
    <path d="M16 8v12"/>
    <path d="M16 12c-3-2-5 0-5 3s2 3 5 1"/>
    <path d="M16 12c3-2 5 0 5 3s-2 3-5 1"/>
    <path d="M16 16c-2.5-1.5-4 0-4 2s1.5 2 4 .5"/>
    <path d="M16 16c2.5-1.5 4 0 4 2s-1.5 2-4 .5"/>
  </g>
</svg>
